#!OML:ASF H:\Terrain\Patient Classification 1\Walking\liu\liu.ASF
:FULLY-SPECIFIED
:DEGREES
197
root 0.0216 16.34 40.5658 6.56711 0.0156 1.73941
lowerback -2.68268 -3.05676 -4.05737
upperback 0.0241692 -3.99625 2.55927
thorax 1.98996 -2.05313 4.72926
lowerneck -22.8204 -3.15469 -11.4691
upperneck 23.0395 -3.47673 11.2431
head 11.729 -1.14745 5.59315
rclavicle -4.39811e-014 1.90833e-014
rhumerus -45.3808 13.3855 -86.7089
rradius 33.2549
rwrist -17.088
rhand -26.9109 -30.6222
rfingers 7.12502
rthumb -0.33408 -60.6017
lclavicle -4.39811e-014 1.90833e-014
lhumerus -20.7363 -13.0396 86.3557
lradius 28.1728
lwrist 3.25426
lhand -11.4158 -25.0347
lfingers 7.12502
lthumb 14.6199 4.43
rfemur -36.0401 -2.36823 20.6305
rtibia 50.3168
rfoot -15.3229 -8.41375
rtoes -22.2247
lfemur -6.97171 1.14604 -27.603
ltibia 20.2454
lfoot -17.205 0.479132
ltoes 4.20079
198
root 0.0216 16.3338 40.7581 6.77706 0.0156 1.84173
lowerback -2.89011 -3.18332 -4.16578
upperback -0.0201847 -4.15468 2.54653
thorax 2.08539 -2.13466 4.75722
lowerneck -22.7546 -3.17031 -11.7088
upperneck 22.8724 -3.49798 11.5656
head 11.6672 -1.13835 5.74951
rclavicle -3.99557e-014 3.81667e-014
rhumerus -46.0976 13.5604 -87.0288
rradius 33.2123
rwrist -17.9018
rhand -30.3416 -26.559
rfingers 7.12502
rthumb -3.64732 -56.5075
lclavicle -3.99557e-014 3.81667e-014
lhumerus -19.9226 -13.6008 86.1211
lradius 28.9926
lwrist 3.91231
lhand -11.5539 -25.3177
lfingers 7.12502
lthumb 14.4869 4.15658
rfemur -36.602 -1.7502 20.2604
rtibia 47.9437
rfoot -16.0279 -8.10477
rtoes -21.3501
lfemur -5.91465 1.07502 -27.6895
ltibia 19.009
lfoot -17.0996 0.467486
ltoes 3.98942
199
root 0.0216 16.3276 40.9504 6.93614 0.0156 2.1203
lowerback -3.06701 -3.25375 -4.4105
upperback -0.0820811 -4.23149 2.42285
thorax 2.13788 -2.17448 4.75319
lowerneck -23.1545 -3.29156 -11.4765
upperneck 23.286 -3.67296 11.3207
head 11.9186 -1.22085 5.60817
rclavicle -1.16786e-014 6.36111e-015
rhumerus -46.4532 12.9989 -86.687
rradius 32.7471
rwrist -16.7455
rhand -31.1292 -25.1829
rfingers 7.12502
rthumb -4.40792 -55.117
lclavicle -1.16786e-014 6.36111e-015
lhumerus -19.1075 -14.4125 85.894
lradius 29.6906
lwrist 4.59242
lhand -11.8339 -25.3354
lfingers 7.12502
lthumb 14.217 4.15807
rfemur -37.1064 -0.694756 19.5584
rtibia 45.5427
rfoot -16.4365 -8.27739
rtoes -20.1421
lfemur -4.72336 1.12328 -27.9771
ltibia 17.6835
lfoot -17.0522 0.506118
ltoes 3.52877
200
root 0.0216 16.3274 41.1428 7.12887 0.0156 2.46535
lowerback -3.27437 -3.35384 -4.75285
upperback -0.110587 -4.3426 2.33159
thorax 2.25629 -2.23525 4.83197
lowerneck -23.4912 -3.34921 -11.2902
upperneck 23.5535 -3.73282 11.064
head 12.0865 -1.25746 5.4805
rclavicle 2.4202e-014 -2.62396e-014
rhumerus -46.5579 12.4175 -86.227
rradius 32.2632
rwrist -15.7753
rhand -28.5463 -26.9339
rfingers 7.12502
rthumb -1.9135 -56.905
lclavicle 2.4202e-014 -2.62396e-014
lhumerus -18.3085 -15.3773 85.7116
lradius 30.4868
lwrist 5.50444
lhand -12.3712 -25.5318
lfingers 7.12502
lthumb 13.6992 3.99731
rfemur -37.6089 0.224084 18.7526
rtibia 43.1558
rfoot -17.101 -7.80749
rtoes -16.9848
lfemur -3.37532 1.18613 -28.3021
ltibia 16.0773
lfoot -16.7233 0.41716
ltoes 3.30014
201
root 0.0216 16.3257 41.3351 7.33608 0.0156 2.77521
lowerback -3.42732 -3.48579 -5.06992
upperback -0.12634 -4.49772 2.23173
thorax 2.36111 -2.31782 4.88628
lowerneck -23.4018 -3.24946 -11.1943
upperneck 23.3252 -3.63772 11.1273
head 11.9667 -1.19782 5.49327
rclavicle -4.62174e-015 -1.03368e-014
rhumerus -46.7912 12.2578 -86.2282
rradius 31.9946
rwrist -15.7835
rhand -27.3827 -28.2133
rfingers 7.12502
rthumb -0.789756 -58.1916
lclavicle -4.62174e-015 -1.03368e-014
lhumerus -17.5262 -16.2833 85.3566
lradius 31.2961
lwrist 6.33622
lhand -12.9681 -25.8094
lfingers 7.12502
lthumb 13.1239 3.75761
rfemur -38.1374 0.923172 18.0215
rtibia 40.8123
rfoot -17.6613 -7.21932
rtoes -14.7652
lfemur -1.82682 1.28795 -28.5614
ltibia 14.0523
lfoot -16.1847 0.205696
ltoes 3.21142
202
root 0.0216 16.3206 41.5275 7.49973 0.0156 3.06096
lowerback -3.60909 -3.57853 -5.31159
upperback -0.109702 -4.60042 2.13065
thorax 2.50394 -2.37522 4.89695
lowerneck -23.2116 -3.24596 -11.2119
upperneck 23.0144 -3.63152 11.1544
head 11.8103 -1.19503 5.49121
rclavicle 4.62174e-015 -1.27222e-014
rhumerus -47.1814 11.8945 -86.066
rradius 31.7708
rwrist -15.5924
rhand -27.9988 -28.2066
rfingers 7.12502
rthumb -1.38476 -58.1819
lclavicle 4.62174e-015 -1.27222e-014
lhumerus -16.6522 -17.1843 85.0536
lradius 31.9897
lwrist 6.93272
lhand -13.4696 -25.8846
lfingers 7.12502
lthumb 12.6405 3.71294
rfemur -38.6454 1.41074 17.3549
rtibia 38.4849
rfoot -17.4536 -7.02498
rtoes -14.2369
lfemur -0.163689 1.34338 -28.7693
ltibia 11.8511
lfoot -15.6799 -0.138905
ltoes 3.26957
203
root 0.0216 16.3196 41.7198 7.73748 0.0156 3.23621
lowerback -3.91164 -3.60194 -5.37631
upperback -0.108744 -4.61191 2.0687
thorax 2.67609 -2.38561 4.84873
lowerneck -23.2457 -3.44882 -11.559
upperneck 22.9322 -3.84508 11.3768
head 11.8284 -1.29281 5.59979
rclavicle 2.86747e-014 1.59028e-015
rhumerus -47.4602 10.8376 -85.3918
rradius 31.4467
rwrist -15.8471
rhand -27.9412 -25.545
rfingers 7.12502
rthumb -1.32915 -55.5206
lclavicle 2.86747e-014 1.59028e-015
lhumerus -15.7062 -18.0205 84.8818
lradius 32.6663
lwrist 7.55919
lhand -13.5753 -25.9584
lfingers 7.12502
lthumb 12.5386 3.64539
rfemur -39.1152 2.02151 16.7069
rtibia 36.1261
rfoot -17.5156 -6.80661
rtoes -15.8399
lfemur 1.37132 1.3265 -28.8306
ltibia 9.66596
lfoot -14.9184 -0.443646
ltoes 3.48087
204
root 0.0216 16.3235 41.9121 7.98968 0.0156 3.0873
lowerback -4.25063 -3.64927 -5.18512
upperback -0.084493 -4.66744 2.09094
thorax 2.88484 -2.41674 4.7377
lowerneck -23.3537 -3.54424 -11.7946
upperneck 22.8444 -3.97209 11.7191
head 11.848 -1.32452 5.75183
rclavicle 2.11209e-014 3.97569e-015
rhumerus -47.6521 10.0265 -84.8727
rradius 31.2714
rwrist -16.6469
rhand -27.8023 -22.3827
rfingers 7.12502
rthumb -1.19494 -52.3591
lclavicle 2.11209e-014 3.97569e-015
lhumerus -14.7995 -18.4195 84.5449
lradius 33.3546
lwrist 7.99006
lhand -13.3557 -26.2864
lfingers 7.12502
lthumb 12.7503 3.30428
rfemur -39.5614 3.08249 16.257
rtibia 33.7999
rfoot -17.981 -6.84304
rtoes -19.3079
lfemur 3.02897 1.46396 -28.5575
ltibia 7.25234
lfoot -14.0099 -0.584247
ltoes 3.09914
205
root 0.0216 16.3226 42.1045 8.1865 0.0156 2.86091
lowerback -4.43674 -3.81277 -5.06261
upperback -0.168052 -4.88874 2.26317
thorax 2.93482 -2.52648 4.81992
lowerneck -23.1608 -3.42842 -11.9487
upperneck 22.6575 -3.80871 11.9002
head 11.7227 -1.24561 5.86644
rclavicle 3.35449e-014 7.15625e-015
rhumerus -48.0339 9.85642 -84.5406
rradius 31.0815
rwrist -16.756
rhand -29.8924 -21.7601
rfingers 7.12502
rthumb -3.2135 -51.7156
lclavicle 3.35449e-014 7.15625e-015
lhumerus -14.2777 -18.4209 84.3642
lradius 34.0424
lwrist 8.14673
lhand -13.5036 -26.5784
lfingers 7.12502
lthumb 12.6077 3.02118
rfemur -39.9625 4.2573 15.8125
rtibia 31.5897
rfoot -18.4475 -6.86716
rtoes -20.7174
lfemur 5.16435 1.60579 -28.1976
ltibia 4.14079
lfoot -12.9745 -0.694897
ltoes 1.19011
206
root 0.0216 16.3088 42.2968 8.3465 0.0156 2.86538
lowerback -4.40486 -4.02895 -5.10927
upperback -0.383172 -5.18102 2.36563
thorax 2.74371 -2.66413 4.93712
lowerneck -23.2058 -3.32331 -11.8229
upperneck 22.8844 -3.64781 11.6536
head 11.7858 -1.19388 5.78548
rclavicle 8.79622e-015 7.95139e-015
rhumerus -48.3206 9.35581 -84.0069
rradius 30.3894
rwrist -16.0511
rhand -31.9854 -22.3851
rfingers 7.12502
rthumb -5.23465 -52.3005
lclavicle 8.79622e-015 7.95139e-015
lhumerus -13.9367 -18.5435 84.25
lradius 34.6141
lwrist 8.47918
lhand -14.0317 -26.6719
lfingers 7.12502
lthumb 12.0986 2.95828
rfemur -40.3808 5.5908 14.9117
rtibia 29.6613
rfoot -19.2504 -6.84224
rtoes -19.7197
lfemur 7.8063 1.61763 -28.079
ltibia 0
lfoot -11.2997 -0.896267
ltoes 0.0453676
